<?xml version="1.0" encoding="UTF-8" standalone="no"?>
<svg
   xml:space="preserve"
   viewBox="164.072 372.466 99.999999 99.999997"
   version="1.1"
   id="svg3"
   sodipodi:docname="Forge_logo.svg"
   width="100"
   height="100"
   inkscape:version="1.3 (0e150ed6c4, 2023-07-21)"
   xmlns:inkscape="http://www.inkscape.org/namespaces/inkscape"
   xmlns:sodipodi="http://sodipodi.sourceforge.net/DTD/sodipodi-0.dtd"
   xmlns="http://www.w3.org/2000/svg"
   xmlns:svg="http://www.w3.org/2000/svg"><defs
   id="defs3" /><sodipodi:namedview
   id="namedview3"
   pagecolor="#ffffff"
   bordercolor="#111111"
   borderopacity="1"
   inkscape:showpageshadow="0"
   inkscape:pageopacity="0"
   inkscape:pagecheckerboard="1"
   inkscape:deskcolor="#d1d1d1"
   inkscape:zoom="2.2336514"
   inkscape:cx="-4.029277"
   inkscape:cy="2.2384872"
   inkscape:window-width="1920"
   inkscape:window-height="1000"
   inkscape:window-x="0"
   inkscape:window-y="0"
   inkscape:window-maximized="1"
   inkscape:current-layer="svg3" />&#10;  &#10;  <rect
   style="fill:#1e2d41;fill-opacity:1;stroke:none;stroke-width:3;stroke-linecap:square"
   id="rect3"
   width="99.999992"
   height="100"
   x="164.07201"
   y="372.466" /><path
   fill="#1e2d41"
   d="m 254.53556,403.56027 -43.02818,-2.10581 52.56462,-0.0386 v -4.23782 h -59.26865 l -0.001,8.86671 v 7.05084 c 0,0.13076 -1.72831,-10.39718 -2.12628,-13.34213 h -4.65962 v 14.81461 c 0,0.13985 -1.99324,-12.38019 -2.20474,-13.94477 H 164.072 c 2.16267,1.87386 14.10054,12.05044 22.58747,16.23706 4.25369,2.09899 9.47161,2.11491 14.11531,2.24453 2.35938,0.0682 4.83246,0.24674 6.5983,1.99437 2.56404,2.54244 3.13598,6.48573 0.92556,9.47162 -2.18542,2.9495 -8.34026,3.58852 -8.34026,3.58852 l -5.12694,6.28901 v 7.3044 h 11.65588 l 0.36272,-7.21798 10.07766,-7.14635 c -1.07566,0.86075 -3.4771,3.16441 -7.08268,8.71661 -0.81526,1.25304 -1.44974,2.62205 -1.94549,3.9683 2.54471,-2.15584 7.77741,-3.63173 13.81855,-3.63173 6.03432,0 11.26018,1.47249 13.81058,3.62491 -0.49688,-1.3474 -1.13022,-2.71186 -1.9432,-3.96033 -3.60672,-5.55221 -6.00818,-7.85586 -7.08268,-8.71661 l 10.07766,7.14634 0.36386,7.21799 h 10.87586 v -7.3044 l -5.12468,-6.28901 c 0,0 -7.5898,-0.48325 -9.57736,-3.58853 -5.72162,-8.94743 2.40486,-22.83421 21.41744,-27.01173 z"
   id="path3"
   style="fill:#ffffff;fill-opacity:1;stroke-width:1" />&#10;</svg>
