<?xml version="1.0" encoding="UTF-8" standalone="no"?>
<svg
   width="512"
   height="514"
   viewBox="0 0 512 514"
   version="1.1"
   id="svg2"
   sodipodi:docname="modrinth.svg"
   xmlns:inkscape="http://www.inkscape.org/namespaces/inkscape"
   xmlns:sodipodi="http://sodipodi.sourceforge.net/DTD/sodipodi-0.dtd"
   xmlns="http://www.w3.org/2000/svg"
   xmlns:svg="http://www.w3.org/2000/svg">
  <defs
     id="defs2" />
  <sodipodi:namedview
     id="namedview2"
     pagecolor="#ffffff"
     bordercolor="#111111"
     borderopacity="1"
     inkscape:showpageshadow="0"
     inkscape:pageopacity="0"
     inkscape:pagecheckerboard="1"
     inkscape:deskcolor="#d1d1d1" />
  <path
     fill-rule="evenodd"
     clip-rule="evenodd"
     d="m 503.16,323.56 c 11.39,-42.09 12.16,-87.65 0.04,-132.8 C 466.57,54.2299 326.04,-26.8001 189.33,9.77991 83.8101,38.0199 11.3899,128.07 0.689941,230.47 H 43.99 C 54.29,147.33 113.74,74.7298 199.75,51.7098 306.05,23.2598 415.13,80.6699 453.17,181.38 l -42.14,11.27 C 391.64,145.8 352.57,111.45 306.3,96.8198 l -7.74,43.8402 c 36.53,13.47 66.16,43.84 77,84.25 15.8,58.89 -13.62,119.23 -67,144.26 l 11.53,42.99 C 390.25,383.21 432.4,310.3 422.43,235.14 l 41.98,-11.23 c 4.5,28.71 2.94,57.25 -3.86,84.16 z"
     fill="var(--color-brand)"
     id="path1"
     style="fill:#ffffff;fill-opacity:1" />
  <path
     d="M 321.99,504.22 C 185.27,540.8 44.7501,459.77 8.11011,323.24 3.84011,307.31 1.17,291.33 0,275.46 h 43.27 c 1.09,11.91 3.1999,23.89 6.4099,35.83 3.36,12.51 7.7701,24.46 13.1101,35.78 l 38.59,-23.15 c -3.2501,-7.5 -5.99,-15.32 -8.17,-23.45 -24.04,-89.6 29.2,-181.7 118.92,-205.7099 17,-4.55 34.1,-6.32 50.8,-5.61 L 255.19,133 c -10.46,0.05 -21.08,1.42 -31.66,4.25 -66.22,17.73 -105.52,85.7 -87.78,151.84 1.1,4.07 2.38,8.04 3.84,11.9 l 49.35,-29.61 -14.87,-39.43 46.6,-47.87 58.9,-12.69 17.05,20.99 -27.15,27.5 -23.68,7.45 -16.92,17.39 8.29,23.07 c 0,0 16.79,17.84 16.82,17.85 l 23.72,-6.31 16.88,-18.54 36.86,-11.67 10.98,24.7 -38.03,46.63 -63.73,20.18 -28.58,-31.82 -49.82,29.89 c 25.54,29.08 63.94,45.23 103.75,41.86 l 11.53,42.99 C 218.13,431.41 160.1,406.82 124.05,361.64 L 85.6399,384.68 C 136.25,451.17 223.84,484.11 309.61,461.16 371.35,444.64 419.4,402.56 445.42,349.38 l 42.64,15.5 c -30.89,66.28 -89.84,118.94 -166.07,139.34 z"
     fill="var(--color-brand)"
     id="path2"
     style="fill:#ffffff;fill-opacity:1" />
</svg>
